<svg width="160" height="49" viewBox="0 0 160 49" cursor="pointer" fill="none" xmlns="http://www.w3.org/2000/svg">
    <path d="M10.2843 48.3871C9.87835 48.3871 9.47239 48.3871 9.06643 48.3871C8.25451 48.3871 7.30727 48.2604 6.49535 48.1338C5.68343 48.0071 5.00683 47.7538 4.19491 47.5004C3.51832 47.1204 2.84172 46.7404 2.30044 46.2337C1.75916 45.7271 1.21788 45.0937 0.947239 44.4604C0.541279 43.8271 0.40596 43.0671 0.27064 42.307C0.13532 41.547 0 40.787 0 40.027C0 39.7737 0 38.887 0 38.887V9.62675C0 9.62675 0 8.74008 0 8.48674C0 7.60007 0.13532 6.84006 0.27064 6.08005C0.40596 5.32005 0.676599 4.68671 0.947239 3.9267C1.3532 3.29336 1.75916 2.66002 2.30044 2.15335C2.84172 1.64668 3.51832 1.14001 4.19491 0.886674C4.87151 0.506671 5.68343 0.380003 6.49535 0.253336C7.30727 0.126668 8.11919 0 9.06643 0H10.2843H149.393H150.611C151.423 0 152.235 0.126668 153.182 0.253336C153.994 0.380003 154.671 0.633339 155.482 0.886674C156.836 1.52001 158.054 2.66002 158.73 3.9267C159.136 4.56004 159.271 5.32005 159.407 5.95339C159.542 6.71339 159.677 7.60007 159.677 8.36007C159.677 8.74008 159.677 9.12008 159.677 9.50008C159.677 10.0068 159.677 10.3868 159.677 10.8934V37.367C159.677 37.8737 159.677 38.2537 159.677 38.7603C159.677 39.1403 159.677 39.5203 159.677 39.9004C159.677 40.6604 159.542 41.4204 159.407 42.307C159.271 43.0671 159.001 43.7004 158.73 44.4604C158.324 45.0937 157.918 45.7271 157.377 46.2337C156.836 46.7404 156.159 47.2471 155.482 47.5004C154.806 47.8804 153.994 48.1338 153.182 48.1338C152.37 48.2604 151.558 48.3871 150.611 48.3871C150.205 48.3871 149.799 48.3871 149.393 48.3871H147.905H10.2843Z" fill="black"/>
<path d="M32.341 24.5735C32.341 22.4202 33.5589 20.3935 35.5887 19.2535C34.3708 17.6068 32.341 16.5934 30.1759 16.4668C27.8754 16.2134 25.7103 17.7335 24.4924 17.7335C23.2746 17.7335 21.5154 16.4668 19.6209 16.4668C17.0499 16.5934 14.7494 17.8601 13.5315 19.8868C10.9605 24.0668 12.8549 30.4002 15.426 33.8203C16.6439 35.4669 18.1324 37.367 20.0269 37.367C21.9214 37.2403 22.598 36.2269 24.8984 36.2269C27.1988 36.2269 27.7401 37.367 29.7699 37.367C31.7997 37.367 33.0176 35.7203 34.2355 33.9469C35.1827 32.8069 35.8593 31.4136 36.2653 30.0202C33.8295 29.2602 32.341 26.9802 32.341 24.5735Z" fill="white"/>
<path d="M28.6876 14.3134C29.7701 13.0468 30.3114 11.5267 30.1761 9.88007C28.4169 10.1334 26.9284 10.8934 25.8459 12.0334C24.7633 13.1734 24.222 14.6934 24.3573 16.3401C25.9812 16.3401 27.605 15.5801 28.6876 14.3134Z" fill="white"/>
<path d="M56.0217 33.3136H49.6617L48.1732 37.6203H45.4668L51.4209 21.7869H54.2626L60.352 37.4937H57.6456L56.0217 33.3136ZM50.3383 31.2869H55.4805L53.0447 24.4469H52.7741L50.3383 31.2869Z" fill="white"/>
<path d="M73.4778 31.7936C73.4778 35.3403 71.448 37.6204 68.3356 37.6204C66.7118 37.747 65.2233 36.8603 64.5467 35.5937V41.2937H61.9756V26.0936H64.4113V27.9936C65.2233 26.7269 66.7118 25.9669 68.3356 25.9669C71.448 25.9669 73.4778 28.2469 73.4778 31.7936ZM70.9067 31.7936C70.9067 29.5136 69.6888 27.9936 67.659 27.9936C65.7645 27.9936 64.4113 29.5136 64.4113 31.7936C64.4113 34.0737 65.7645 35.5937 67.659 35.5937C69.5535 35.5937 70.9067 34.0737 70.9067 31.7936Z" fill="white"/>
<path d="M87.011 31.7936C87.011 35.3403 84.9812 37.6204 81.8688 37.6204C80.245 37.747 78.7565 36.8603 78.0799 35.5937V41.2937H75.5088V26.0936H77.9445V27.9936C78.7565 26.7269 80.245 25.9669 81.8688 25.9669C84.8459 25.9669 87.011 28.2469 87.011 31.7936ZM84.3046 31.7936C84.3046 29.5136 83.0867 27.9936 81.0569 27.9936C79.1624 27.9936 77.8092 29.5136 77.8092 31.7936C77.8092 34.0737 79.1624 35.5937 81.0569 35.5937C83.0867 35.5937 84.3046 34.0737 84.3046 31.7936Z" fill="white"/>
<path d="M95.8063 33.1869C95.9416 34.7069 97.5655 35.7203 99.8659 35.7203C102.031 35.7203 103.52 34.7069 103.52 33.3136C103.52 32.0469 102.572 31.4136 100.407 30.9069L98.2421 30.4002C95.1297 29.6402 93.7765 28.3735 93.7765 26.2202C93.7765 23.5602 96.3476 21.6602 99.8659 21.6602C103.384 21.6602 105.82 23.5602 105.955 26.2202H103.384C103.249 24.7002 101.896 23.6868 99.8659 23.6868C97.8361 23.6868 96.4829 24.7002 96.4829 26.0935C96.4829 27.2335 97.4301 27.8669 99.5953 28.3735L101.49 28.7536C104.873 29.5136 106.361 30.7802 106.361 33.0603C106.361 35.9736 103.79 37.8736 99.8659 37.8736C96.0769 37.8736 93.6412 36.1003 93.5059 33.1869H95.8063Z" fill="white"/>
<path d="M111.638 23.3068V25.9668H113.939V27.8669H111.638V34.2003C111.638 35.2136 112.044 35.5936 113.127 35.5936C113.397 35.5936 113.668 35.5936 113.939 35.5936V37.4936C113.533 37.6203 112.991 37.6203 112.586 37.6203C110.15 37.6203 109.203 36.7336 109.203 34.5803V27.8669H107.443V25.9668H109.203V23.3068H111.638Z" fill="white"/>
<path d="M115.292 31.7936C115.292 28.2469 117.592 25.9669 121.111 25.9669C124.629 25.9669 126.93 28.2469 126.93 31.7936C126.93 35.467 124.629 37.6204 121.111 37.6204C117.592 37.6204 115.292 35.467 115.292 31.7936ZM124.358 31.7936C124.358 29.2603 123.141 27.8669 121.111 27.8669C119.081 27.8669 117.863 29.3869 117.863 31.7936C117.863 34.327 119.081 35.7203 121.111 35.7203C123.141 35.7203 124.358 34.327 124.358 31.7936Z" fill="white"/>
<path d="M128.96 26.0935H131.396V27.9936C131.666 26.7269 133.02 25.8402 134.373 25.9669C134.643 25.9669 134.914 25.9669 135.185 26.0935V28.2469C134.779 28.1202 134.373 28.1202 134.102 28.1202C132.749 28.1202 131.531 29.1336 131.531 30.4002C131.531 30.5269 131.531 30.6536 131.531 30.7802V37.6203H128.96V26.0935Z" fill="white"/>
<path d="M146.822 34.2003C146.551 36.227 144.251 37.747 141.544 37.747C138.026 37.747 135.726 35.467 135.726 31.9203C135.726 28.3736 137.891 25.9669 141.409 25.9669C144.792 25.9669 146.957 28.1203 146.957 31.667V32.427H138.297V32.5536C138.161 34.2003 139.379 35.5937 141.138 35.847C141.274 35.847 141.409 35.847 141.544 35.847C142.762 35.9737 143.98 35.3403 144.386 34.2003H146.822ZM138.297 30.7803H144.386C144.521 29.2603 143.168 27.9936 141.544 27.8669C141.409 27.8669 141.409 27.8669 141.274 27.8669C139.785 27.8669 138.297 29.1336 138.297 30.7803C138.297 30.6536 138.297 30.7803 138.297 30.7803Z" fill="white"/>
<path d="M50.0679 10.007C52.0977 9.88031 53.7215 11.2737 53.8568 13.047C53.8568 13.3003 53.8568 13.427 53.8568 13.6803C53.8568 16.087 52.5036 17.4804 50.0679 17.4804H47.0908V9.88031H50.0679V10.007ZM48.3087 16.467H49.7972C51.1504 16.5937 52.3683 15.5804 52.5036 14.187C52.5036 14.0603 52.5036 13.807 52.5036 13.6803C52.6389 12.4137 51.6917 11.147 50.3385 11.0203C50.2032 11.0203 50.0679 11.0203 49.7972 11.0203H48.3087V16.467Z" fill="white"/>
<path d="M55.2106 14.6935C55.0753 13.1735 56.1579 11.9068 57.7817 11.7801C59.4055 11.6535 60.7587 12.6668 60.894 14.1868C60.894 14.3135 60.894 14.5668 60.894 14.6935C61.0294 16.2135 59.9468 17.4802 58.323 17.6069C56.8345 17.7335 55.3459 16.7202 55.2106 15.2002C55.2106 14.9468 55.2106 14.8202 55.2106 14.6935ZM59.6762 14.6935C59.6762 13.4268 59.1349 12.7935 58.0523 12.7935C56.9698 12.7935 56.4285 13.5535 56.4285 14.6935C56.4285 15.9602 56.9698 16.7202 58.0523 16.7202C59.1349 16.5935 59.6762 15.8335 59.6762 14.6935Z" fill="white"/>
<path d="M68.6063 17.4802H67.3884L66.1705 13.3002H66.0352L64.8173 17.4802H63.5994L61.9756 11.7802H63.1935L64.276 16.0869H64.4113L65.6292 11.7802H66.8471L68.065 16.0869H68.2003L69.0122 11.7802H70.2301L68.6063 17.4802Z" fill="white"/>
<path d="M71.7197 11.7801H72.9376V12.6668H73.0729C73.3436 12.0335 74.1555 11.6535 74.8321 11.6535C75.9146 11.5268 76.8619 12.2868 76.9972 13.4268C76.9972 13.5535 76.9972 13.6802 76.9972 13.8068V17.4802H75.7793V14.0602C75.7793 13.1735 75.3734 12.6668 74.4261 12.6668C73.6142 12.6668 72.9376 13.1735 72.9376 13.9335C72.9376 14.0602 72.9376 14.0602 72.9376 14.1868V17.4802H71.7197V11.7801Z" fill="white"/>
<path d="M78.7559 9.62677H79.9737V17.6068H78.7559V9.62677Z" fill="white"/>
<path d="M81.5973 14.6935C81.462 13.1735 82.5446 11.9068 84.1684 11.7801C85.7923 11.6535 87.1454 12.6668 87.2808 14.1868C87.2808 14.3135 87.2808 14.5668 87.2808 14.6935C87.4161 16.2135 86.3335 17.4802 84.7097 17.6069C83.0859 17.7335 81.7327 16.7202 81.5973 15.2002C81.5973 14.9468 81.5973 14.8202 81.5973 14.6935ZM86.1982 14.6935C86.1982 13.4268 85.6569 12.7935 84.5744 12.7935C83.4918 12.7935 82.9505 13.5535 82.9505 14.6935C82.9505 15.9602 83.4918 16.7202 84.5744 16.7202C85.5216 16.5935 86.1982 15.8335 86.1982 14.6935Z" fill="white"/>
<path d="M88.6343 15.8335C88.6343 14.8201 89.4463 14.1868 90.9348 14.1868L92.5586 14.0601V13.5535C92.5586 12.9201 92.1527 12.6668 91.3407 12.6668C90.6641 12.6668 90.2582 12.9201 90.1229 13.3001H88.905C89.0403 12.2868 89.9875 11.6534 91.3407 11.6534C92.8293 11.6534 93.7765 12.4134 93.7765 13.5535V17.4802H92.5586V16.7202H92.4233C92.0173 17.3535 91.3407 17.6068 90.5288 17.6068C89.5816 17.7335 88.6343 16.9735 88.499 16.0868C88.6343 15.9601 88.6343 15.9601 88.6343 15.8335ZM92.5586 15.4535V14.9468L91.0701 15.0735C90.2582 15.0735 89.8522 15.4535 89.8522 15.8335C89.8522 16.3402 90.3935 16.5935 90.9348 16.5935C91.7467 16.7202 92.5586 16.2135 92.5586 15.4535Z" fill="white"/>
<path d="M95.4004 14.6935C95.4004 12.9201 96.3476 11.7801 97.9715 11.7801C98.7834 11.7801 99.46 12.1601 99.8659 12.7935H100.001V9.62677H101.219V17.6068H100.001V16.7202H99.8659C99.46 17.3535 98.7834 17.7335 97.9715 17.7335C96.3476 17.6068 95.4004 16.4668 95.4004 14.6935ZM96.6183 14.6935C96.6183 15.9602 97.2949 16.5935 98.2421 16.5935C99.1893 16.5935 99.8659 15.8335 99.8659 14.6935C99.8659 13.5535 99.1893 12.7935 98.2421 12.7935C97.1595 12.6668 96.6183 13.4268 96.6183 14.6935Z" fill="white"/>
<path d="M106.091 14.6935C105.955 13.1735 107.038 11.9068 108.662 11.7801C110.286 11.6535 111.639 12.6668 111.774 14.1868C111.774 14.3135 111.774 14.5668 111.774 14.6935C111.909 16.2135 110.827 17.4802 109.203 17.6069C107.579 17.7335 106.226 16.7202 106.091 15.2002C105.955 14.9468 105.955 14.8202 106.091 14.6935ZM110.556 14.6935C110.556 13.4268 110.015 12.7935 108.932 12.7935C107.85 12.7935 107.309 13.5535 107.309 14.6935C107.309 15.9602 107.85 16.7202 108.932 16.7202C110.015 16.5935 110.556 15.8335 110.556 14.6935Z" fill="white"/>
<path d="M113.397 11.7801H114.615V12.6668H114.751C115.021 12.0335 115.833 11.6535 116.51 11.6535C117.592 11.5268 118.54 12.2868 118.675 13.4268C118.675 13.5535 118.675 13.6802 118.675 13.8068V17.4802H117.457V14.0602C117.457 13.1735 117.051 12.6668 116.104 12.6668C115.292 12.6668 114.615 13.1735 114.615 13.9335C114.615 14.0602 114.615 14.0602 114.615 14.1868V17.4802H113.397V11.7801Z" fill="white"/>
<path d="M125.306 10.3868V11.7801H126.659V12.6668H125.306V15.5802C125.306 16.2135 125.576 16.4668 126.118 16.4668C126.253 16.4668 126.388 16.4668 126.524 16.4668V17.3535C126.253 17.3535 126.118 17.3535 125.847 17.3535C124.494 17.3535 123.953 16.9735 123.953 15.8335V12.6668H123.141V11.7801H124.088V10.3868H125.306Z" fill="white"/>
<path d="M128.283 9.62677H129.501V12.6668H129.636C129.907 12.0335 130.719 11.5268 131.531 11.6535C132.613 11.6535 133.561 12.4135 133.696 13.4268C133.696 13.5535 133.696 13.6801 133.696 13.8068V17.4802H132.478V14.0601C132.478 13.1735 132.072 12.6668 131.125 12.6668C130.313 12.6668 129.636 13.1735 129.636 13.9335C129.636 14.0601 129.636 14.0601 129.636 14.1868V17.4802H128.419L128.283 9.62677Z" fill="white"/>
<path d="M140.597 15.9602C140.327 16.9735 139.109 17.7335 137.891 17.6069C136.402 17.6069 135.049 16.4669 135.049 15.0735C135.049 14.9468 135.049 14.8202 135.049 14.6935C134.779 13.3002 135.861 11.9068 137.485 11.7802C137.62 11.7802 137.756 11.7802 137.891 11.7802C139.65 11.7802 140.597 12.9202 140.597 14.6935V15.0735H136.267C136.132 15.9602 136.808 16.5935 137.756 16.7202H137.891C138.432 16.8469 139.109 16.4669 139.379 16.0869L140.597 15.9602ZM136.402 14.1868H139.515C139.515 13.4268 138.974 12.7935 138.162 12.6668H138.026C137.079 12.6668 136.402 13.3002 136.402 14.1868C136.402 14.0602 136.402 14.0602 136.402 14.1868Z" fill="white"/>
</svg>
