<svg width="160" height="49" cursor="pointer" viewBox="0 0 160 49" fill="none" xmlns="http://www.w3.org/2000/svg">
<path d="M154.086 48.3871H6.23624C2.92442 48.3871 0.322266 45.7258 0.322266 42.3387V6.04839C0.322266 2.66129 2.92442 0 6.23624 0H154.086C157.398 0 160 2.66129 160 6.04839V42.3387C160 45.7258 157.398 48.3871 154.086 48.3871Z" fill="black"/>
<path d="M56.3858 12.3387C56.3858 13.3065 56.1493 14.1533 55.5579 14.7581C54.8482 15.4839 54.0202 15.8468 52.9557 15.8468C51.8912 15.8468 51.0633 15.4839 50.3536 14.7581C49.6439 14.0323 49.2891 13.1855 49.2891 12.0968C49.2891 11.0081 49.6439 10.1613 50.3536 9.43551C51.0633 8.70971 51.8912 8.3468 52.9557 8.3468C53.4288 8.3468 53.902 8.46777 54.3751 8.7097C54.8482 8.95164 55.203 9.19358 55.4396 9.55648L54.8482 10.1613C54.3751 9.55648 53.7837 9.31454 52.9557 9.31454C52.246 9.31454 51.5364 9.55648 51.0633 10.1613C50.4719 10.6452 50.2353 11.371 50.2353 12.2178C50.2353 13.0645 50.4719 13.7904 51.0633 14.2742C51.6547 14.7581 52.246 15.121 52.9557 15.121C53.7837 15.121 54.3751 14.8791 54.9665 14.2742C55.3213 13.9113 55.5579 13.4274 55.5579 12.8226H52.9557V11.8549H56.3858C56.3858 11.9758 56.3858 12.2178 56.3858 12.3387Z" fill="white" stroke="white" stroke-width="0.2" stroke-miterlimit="10"/>
<path d="M61.8273 9.31449H58.6337V11.6129H61.5907V12.4596H58.6337V14.758H61.8273V15.7258H57.6875V8.46771H61.8273V9.31449Z" fill="white" stroke="white" stroke-width="0.2" stroke-miterlimit="10"/>
<path d="M65.7304 15.7258H64.7842V9.31449H62.7734V8.46771H67.7412V9.31449H65.7304V15.7258Z" fill="white" stroke="white" stroke-width="0.2" stroke-miterlimit="10"/>
<path d="M71.1709 15.7258V8.46771H72.1171V15.7258H71.1709Z" fill="white" stroke="white" stroke-width="0.2" stroke-miterlimit="10"/>
<path d="M76.1386 15.7258H75.1924V9.31449H73.1816V8.46771H78.0311V9.31449H76.0204V15.7258H76.1386Z" fill="white" stroke="white" stroke-width="0.2" stroke-miterlimit="10"/>
<path d="M87.3753 14.7581C86.6656 15.4839 85.8376 15.8468 84.7731 15.8468C83.7086 15.8468 82.8806 15.4839 82.171 14.7581C81.4613 14.0323 81.1064 13.1855 81.1064 12.0968C81.1064 11.0081 81.4613 10.1613 82.171 9.43551C82.8806 8.70971 83.7086 8.3468 84.7731 8.3468C85.8376 8.3468 86.6656 8.70971 87.3753 9.43551C88.0849 10.1613 88.4398 11.0081 88.4398 12.0968C88.4398 13.1855 88.0849 14.0323 87.3753 14.7581ZM82.8806 14.1533C83.3538 14.6371 84.0634 15 84.7731 15C85.4828 15 86.1925 14.7581 86.6656 14.1533C87.1387 13.6694 87.4935 12.9436 87.4935 12.0968C87.4935 11.25 87.257 10.5242 86.6656 10.0404C86.1925 9.55648 85.4828 9.19358 84.7731 9.19358C84.0634 9.19358 83.3538 9.43551 82.8806 10.0404C82.4075 10.5242 82.0527 11.25 82.0527 12.0968C82.0527 12.9436 82.2892 13.6694 82.8806 14.1533Z" fill="white" stroke="white" stroke-width="0.2" stroke-miterlimit="10"/>
<path d="M89.7412 15.7258V8.46771H90.8057L94.2358 14.1532V12.7016V8.46771H95.1821V15.7258H94.2358L90.5692 9.79836V11.25V15.7258H89.7412Z" fill="white" stroke="white" stroke-width="0.2" stroke-miterlimit="10"/>
<path d="M80.871 26.3709C78.0323 26.3709 75.785 28.5483 75.785 31.5725C75.785 34.4757 78.0323 36.7741 80.871 36.7741C83.7097 36.7741 85.9571 34.5967 85.9571 31.5725C85.9571 28.4274 83.7097 26.3709 80.871 26.3709ZM80.871 34.5967C79.3334 34.5967 78.0323 33.2661 78.0323 31.4516C78.0323 29.637 79.3334 28.3064 80.871 28.3064C82.4087 28.3064 83.7097 29.5161 83.7097 31.4516C83.7097 33.2661 82.4087 34.5967 80.871 34.5967ZM69.871 26.3709C67.0323 26.3709 64.785 28.5483 64.785 31.5725C64.785 34.4757 67.0323 36.7741 69.871 36.7741C72.7097 36.7741 74.9571 34.5967 74.9571 31.5725C74.9571 28.4274 72.7097 26.3709 69.871 26.3709ZM69.871 34.5967C68.3334 34.5967 67.0323 33.2661 67.0323 31.4516C67.0323 29.637 68.3334 28.3064 69.871 28.3064C71.4087 28.3064 72.7097 29.5161 72.7097 31.4516C72.7097 33.2661 71.4087 34.5967 69.871 34.5967ZM56.742 27.9435V30.1209H61.828C61.7097 31.3306 61.2366 32.2983 60.6452 32.9032C59.9355 33.629 58.7528 34.4757 56.742 34.4757C53.5485 34.4757 51.1829 31.9354 51.1829 28.6693C51.1829 25.4032 53.6667 22.8628 56.742 22.8628C58.3979 22.8628 59.699 23.5887 60.6452 24.4354L62.1829 22.8628C60.8818 21.6532 59.2259 20.6854 56.8603 20.6854C52.6022 20.6854 48.9355 24.3145 48.9355 28.6693C48.9355 33.0241 52.6022 36.6532 56.8603 36.6532C59.2259 36.6532 60.8818 35.9274 62.3011 34.3548C63.7205 32.9032 64.1936 30.8467 64.1936 29.2741C64.1936 28.7903 64.1936 28.3064 64.0753 27.9435H56.742ZM110.441 29.637C109.968 28.4274 108.785 26.3709 106.183 26.3709C103.581 26.3709 101.452 28.4274 101.452 31.5725C101.452 34.4757 103.581 36.7741 106.419 36.7741C108.667 36.7741 110.086 35.3225 110.559 34.4757L108.903 33.2661C108.312 34.1128 107.602 34.7177 106.419 34.7177C105.237 34.7177 104.527 34.2338 103.936 33.1451L110.677 30.2419L110.441 29.637ZM103.581 31.3306C103.581 29.3951 105.118 28.3064 106.183 28.3064C107.011 28.3064 107.839 28.7903 108.075 29.3951L103.581 31.3306ZM98.0216 36.2903H100.269V21.1693H98.0216V36.2903ZM94.4732 27.4596C93.8818 26.8548 92.9356 26.2499 91.7528 26.2499C89.2689 26.2499 86.9033 28.5483 86.9033 31.4516C86.9033 34.3548 89.1506 36.5322 91.7528 36.5322C92.9356 36.5322 93.8818 35.9274 94.3549 35.3225H94.4732V36.0483C94.4732 37.9838 93.4087 39.0725 91.7528 39.0725C90.4517 39.0725 89.5054 38.1048 89.2689 37.258L87.3764 38.1048C87.9678 39.4354 89.3872 41.129 91.871 41.129C94.4732 41.129 96.6022 39.5564 96.6022 35.8064V26.6128H94.4732V27.4596ZM91.871 34.5967C90.3334 34.5967 89.0323 33.2661 89.0323 31.4516C89.0323 29.637 90.3334 28.3064 91.871 28.3064C93.4087 28.3064 94.5915 29.637 94.5915 31.4516C94.5915 33.2661 93.4087 34.5967 91.871 34.5967ZM120.731 21.1693H115.409V36.2903H117.656V30.6048H120.731C123.215 30.6048 125.581 28.7903 125.581 25.887C125.581 22.9838 123.215 21.1693 120.731 21.1693ZM120.85 28.4274H117.656V23.2257H120.85C122.505 23.2257 123.452 24.6774 123.452 25.7661C123.333 27.0967 122.387 28.4274 120.85 28.4274ZM134.452 26.2499C132.796 26.2499 131.14 26.9757 130.548 28.5483L132.559 29.3951C133.032 28.5483 133.742 28.3064 134.57 28.3064C135.753 28.3064 136.817 29.0322 136.936 30.2419V30.3628C136.581 30.1209 135.634 29.758 134.688 29.758C132.559 29.758 130.43 30.9677 130.43 33.1451C130.43 35.2016 132.204 36.5322 134.097 36.5322C135.634 36.5322 136.344 35.8064 136.936 35.0806H137.054V36.2903H139.183V30.4838C138.946 27.8225 136.936 26.2499 134.452 26.2499ZM134.215 34.5967C133.505 34.5967 132.441 34.2338 132.441 33.2661C132.441 32.0564 133.742 31.6935 134.807 31.6935C135.753 31.6935 136.226 31.9354 136.817 32.1774C136.581 33.629 135.398 34.5967 134.215 34.5967ZM146.634 26.6128L144.151 33.1451H144.032L141.43 26.6128H139.065L142.968 35.8064L140.72 40.887H142.968L149 26.6128H146.634ZM126.764 36.2903H129.011V21.1693H126.764V36.2903Z" fill="white"/>
<path d="M12.6235 9.07257C12.2687 9.43547 12.1504 10.0403 12.1504 10.7661V37.5C12.1504 38.2258 12.3869 38.8306 12.7418 39.1935L12.8601 39.3145L27.5267 24.3145V24.1935V24.0726L12.6235 9.07257Z" fill="url(#paint0_linear_1647_3638)"/>
<path d="M32.2577 29.3952L27.4082 24.4356V24.1936V24.0727L32.2577 19.113L32.3759 19.2339L38.1716 22.621C39.8276 23.5888 39.8276 25.1614 38.1716 26.1291L32.2577 29.3952Z" fill="url(#paint1_linear_1647_3638)"/>
<path d="M32.3757 29.2742L27.408 24.1935L12.623 39.3145C13.2144 39.9193 14.0424 39.9193 15.1069 39.4355L32.3757 29.2742Z" fill="url(#paint2_linear_1647_3638)"/>
<path d="M32.3757 19.113L15.1069 9.07264C14.0424 8.4678 13.2144 8.58877 12.623 9.19361L27.408 24.1936L32.3757 19.113Z" fill="url(#paint3_linear_1647_3638)"/>
<path opacity="0.2" d="M32.2575 29.1533L15.1069 39.0726C14.1607 39.6775 13.3327 39.5565 12.7413 39.0726L12.623 39.1936L12.7413 39.3145C13.3327 39.7984 14.1607 39.9194 15.1069 39.3145L32.2575 29.1533Z" fill="black"/>
<path opacity="0.12" d="M12.6235 39.0726C12.2687 38.7097 12.1504 38.1048 12.1504 37.379V37.5C12.1504 38.2258 12.3869 38.8306 12.7418 39.1935V39.0726H12.6235Z" fill="black"/>
<path opacity="0.12" d="M38.1718 25.7661L32.2578 29.1532L32.3761 29.2742L38.1718 25.8871C38.9997 25.4032 39.3546 24.7984 39.3546 24.1935C39.3546 24.7984 38.8815 25.2823 38.1718 25.7661Z" fill="black"/>
<path opacity="0.25" d="M15.1074 9.19357L38.1719 22.621C38.8816 23.1049 39.3547 23.5887 39.3547 24.1936C39.3547 23.5887 38.9999 22.9839 38.1719 22.5L15.1074 9.0726C13.4515 8.10486 12.1504 8.83066 12.1504 10.7661V10.8871C12.1504 9.0726 13.4515 8.22582 15.1074 9.19357Z" fill="white"/>
<defs>
<linearGradient id="paint0_linear_1647_3638" x1="26.1069" y1="10.536" x2="5.81074" y2="30.3812" gradientUnits="userSpaceOnUse">
<stop stop-color="#00A0FF"/>
<stop offset="0.00657445" stop-color="#00A1FF"/>
<stop offset="0.2601" stop-color="#00BEFF"/>
<stop offset="0.5122" stop-color="#00D2FF"/>
<stop offset="0.7604" stop-color="#00DFFF"/>
<stop offset="1" stop-color="#00E3FF"/>
</linearGradient>
<linearGradient id="paint1_linear_1647_3638" x1="40.3412" y1="24.1954" x2="11.7213" y2="24.1954" gradientUnits="userSpaceOnUse">
<stop stop-color="#FFE000"/>
<stop offset="0.4087" stop-color="#FFBD00"/>
<stop offset="0.7754" stop-color="#FFA500"/>
<stop offset="1" stop-color="#FF9C00"/>
</linearGradient>
<linearGradient id="paint2_linear_1647_3638" x1="29.6871" y1="26.9712" x2="2.16387" y2="53.8828" gradientUnits="userSpaceOnUse">
<stop stop-color="#FF3A44"/>
<stop offset="1" stop-color="#C31162"/>
</linearGradient>
<linearGradient id="paint3_linear_1647_3638" x1="8.95307" y1="0.213324" x2="21.2434" y2="12.2304" gradientUnits="userSpaceOnUse">
<stop stop-color="#32A071"/>
<stop offset="0.0685" stop-color="#2DA771"/>
<stop offset="0.4762" stop-color="#15CF74"/>
<stop offset="0.8009" stop-color="#06E775"/>
<stop offset="1" stop-color="#00F076"/>
</linearGradient>
</defs>
</svg>
